<?xml version="1.0" encoding="UTF-8"?>
<svg xmlns="http://www.w3.org/2000/svg" xmlns:xlink="http://www.w3.org/1999/xlink" width="28px" height="px" viewBox="0 0 29 22" version="1.1">
<g id="surface1">
<path style="fill:none;stroke-width:25;stroke-linecap:butt;stroke-linejoin:miter;stroke:rgb(0%,62.745098%,83.529412%);stroke-opacity:1;stroke-miterlimit:4;" d="M 1582.418346 585.458886 L 2162.726131 585.458886 L 2162.726131 1012.659881 L 1582.418346 1012.659881 Z M 1582.418346 585.458886 " transform="matrix(0.0479339,0,0,0.0486726,-75.253802,-27.886412)"/>
<path style="fill:none;stroke-width:25;stroke-linecap:butt;stroke-linejoin:miter;stroke:rgb(0%,62.745098%,83.529412%);stroke-opacity:1;stroke-miterlimit:4;" d="M 1582.418346 728.314 L 2162.726131 728.314 " transform="matrix(0.0479339,0,0,0.0486726,-75.253802,-27.886412)"/>
<path style="fill:none;stroke-width:25;stroke-linecap:butt;stroke-linejoin:miter;stroke:rgb(0%,62.745098%,83.529412%);stroke-opacity:1;stroke-miterlimit:4;" d="M 1871.879553 585.458886 L 1871.879553 731.443972 " transform="matrix(0.0479339,0,0,0.0486726,-75.253802,-27.886412)"/>
<path style="fill:none;stroke-width:25;stroke-linecap:butt;stroke-linejoin:miter;stroke:rgb(0%,62.745098%,83.529412%);stroke-opacity:1;stroke-miterlimit:4;" d="M 1728.208351 728.314 L 1728.208351 866.674795 L 1584.048195 866.674795 " transform="matrix(0.0479339,0,0,0.0486726,-75.253802,-27.886412)"/>
<path style="fill:none;stroke-width:25;stroke-linecap:butt;stroke-linejoin:miter;stroke:rgb(0%,62.745098%,83.529412%);stroke-opacity:1;stroke-miterlimit:4;" d="M 1728.208351 866.674795 L 2164.274488 866.674795 " transform="matrix(0.0479339,0,0,0.0486726,-75.253802,-27.886412)"/>
<path style="fill:none;stroke-width:25;stroke-linecap:butt;stroke-linejoin:miter;stroke:rgb(0%,62.745098%,83.529412%);stroke-opacity:1;stroke-miterlimit:4;" d="M 1871.879553 866.674795 L 1871.879553 1011.054767 " transform="matrix(0.0479339,0,0,0.0486726,-75.253802,-27.886412)"/>
<path style="fill:none;stroke-width:25;stroke-linecap:butt;stroke-linejoin:miter;stroke:rgb(0%,62.745098%,83.529412%);stroke-opacity:1;stroke-miterlimit:4;" d="M 2019.869855 728.314 L 2019.869855 865.069682 " transform="matrix(0.0479339,0,0,0.0486726,-75.253802,-27.886412)"/>
</g>
</svg>
