<svg xmlns="http://www.w3.org/2000/svg" width="574.587" height="574.561" viewBox="0 0 574.587 574.561">
  <g id="lighting-projects" transform="translate(-2.666 -2.667)">
    <path id="Caminho_2" data-name="Caminho 2" d="M32.052,5.791a16.834,16.834,0,1,0,0,33.667,101.126,101.126,0,0,1,101.02,101,16.833,16.833,0,1,0,33.666,0C166.738,66.2,106.318,5.791,32.052,5.791Z" transform="translate(257.891 64.184)" fill="#00a0d5"/>
    <path id="Caminho_3" data-name="Caminho 3" d="M165.226,7.176C89.172,23.068,27.5,84.145,11.279,160.673c-13.7,64.619,3.183,129.5,46.323,178,21.088,23.705,33.181,54.995,33.181,85.937v33.666a50.582,50.582,0,0,0,34.894,48.022c6.653,39.307,40.77,70.935,82.942,70.935s76.287-31.619,82.942-70.935a50.583,50.583,0,0,0,34.892-48.022V424.6c0-31,12.135-61.917,34.164-87.051a201.55,201.55,0,0,0,50-132.906C410.62,77.2,293.965-19.719,165.226,7.176Zm43.392,536.386c-21.639,0-40.612-14.888-47.617-34.9h95.234C249.228,528.674,230.257,543.562,208.618,543.562Zm84.168-85.291a16.853,16.853,0,0,1-16.834,16.834H141.284a16.853,16.853,0,0,1-16.834-16.834V441.439H292.786ZM335.3,315.364c-23.477,26.784-37.921,59.082-41.586,92.407H123.528a166.363,166.363,0,0,0-40.77-91.481c-35.954-40.419-50-94.594-38.544-148.635C57.59,104.57,108.988,53.323,172.114,40.133c107.761-22.52,204.84,58.407,204.84,164.513A167.914,167.914,0,0,1,335.3,315.364Z" transform="translate(81.342 0)" fill="#00a0d5"/>
    <path id="Caminho_4" data-name="Caminho 4" d="M53.167,12.041H19.5a16.834,16.834,0,0,0,0,33.668H53.167a16.834,16.834,0,0,0,0-33.668Z" transform="translate(0 192.603)" fill="#00a0d5"/>
    <path id="Caminho_5" data-name="Caminho 5" d="M55.438,35.538,31.632,11.732A16.833,16.833,0,0,0,7.826,35.538L31.632,59.344A16.834,16.834,0,0,0,55.438,35.538Z" transform="translate(4.7 84.939)" fill="#00a0d5"/>
    <path id="Caminho_6" data-name="Caminho 6" d="M55.438,21.107a16.834,16.834,0,0,0-23.806,0L7.826,44.913A16.834,16.834,0,0,0,31.632,68.719L55.438,44.913A16.834,16.834,0,0,0,55.438,21.107Z" transform="translate(4.7 277.567)" fill="#00a0d5"/>
    <path id="Caminho_7" data-name="Caminho 7" d="M76.711,12.041H43.043a16.834,16.834,0,0,0,0,33.668H76.711a16.834,16.834,0,1,0,0-33.668Z" transform="translate(483.708 192.603)" fill="#00a0d5"/>
    <path id="Caminho_8" data-name="Caminho 8" d="M78.981,11.732a16.833,16.833,0,0,0-23.806,0L31.368,35.538A16.834,16.834,0,0,0,55.174,59.344L78.981,35.538A16.834,16.834,0,0,0,78.981,11.732Z" transform="translate(488.409 84.939)" fill="#00a0d5"/>
    <path id="Caminho_9" data-name="Caminho 9" d="M78.981,44.913,55.174,21.107A16.834,16.834,0,0,0,31.368,44.913L55.174,68.719A16.834,16.834,0,0,0,78.981,44.913Z" transform="translate(488.409 277.567)" fill="#00a0d5"/>
  </g>
</svg>
