<?xml version="1.0" encoding="UTF-8"?>
<svg xmlns="http://www.w3.org/2000/svg" xmlns:xlink="http://www.w3.org/1999/xlink" width="42px" height="28px" viewBox="0 0 51 40" version="1.1">
<g id="surface1">
<path style="fill:none;stroke-width:40;stroke-linecap:round;stroke-linejoin:miter;stroke:rgb(0%,62.745098%,83.529412%);stroke-opacity:1;stroke-miterlimit:4;" d="M 6235.359271 723.642746 L 6787.761998 424.777805 C 6787.761998 424.777805 6923.063699 394.050461 7052.873058 583.708762 C 7182.682418 773.263254 7099.34671 877.902316 7099.34671 877.902316 L 6548.845178 1184.656711 L 6859.479293 1340.47341 L 7112.232586 1218.498313 " transform="matrix(0.0369833,0,0,0.0376294,-221.866014,-15.163801)"/>
<path style="fill:none;stroke-width:40;stroke-linecap:round;stroke-linejoin:miter;stroke:rgb(0%,62.745098%,83.529412%);stroke-opacity:1;stroke-miterlimit:4;" d="M 6603.161476 1058.12552 L 6603.161476 1147.297102 L 7103.281344 900.336457 L 7103.281344 816.770539 L 6955.727499 887.568 " transform="matrix(0.0369833,0,0,0.0376294,-212.460748,-4.398608)"/>
<path style="fill:none;stroke-width:40;stroke-linecap:butt;stroke-linejoin:miter;stroke:rgb(0%,62.745098%,83.529412%);stroke-opacity:1;stroke-miterlimit:4;" d="M 7047.791026 887.209187 L 6699.344258 714.783113 " transform="matrix(0.0369833,0,0,0.0376294,-210.002282,-7.572606)"/>
<path style="fill:none;stroke-width:40;stroke-linecap:butt;stroke-linejoin:miter;stroke:rgb(0%,62.745098%,83.529412%);stroke-opacity:1;stroke-miterlimit:4;" d="M 6812.629173 1121.190305 C 6694.015738 1061.188938 6338.703545 882.015305 6338.703545 882.015305 " transform="matrix(0.0369833,0,0,0.0376294,-220.617716,-2.869351)"/>
<path style="fill:none;stroke-width:40;stroke-linecap:butt;stroke-linejoin:miter;stroke:rgb(0%,62.745098%,83.529412%);stroke-opacity:1;stroke-miterlimit:4;" d="M 450.968152 296.709104 C 450.926158 143.863352 354.411489 20.024082 235.486174 20.029062 C 116.478775 19.967572 19.934545 143.889145 19.976539 296.734897 C 19.936449 449.514179 116.451119 573.353449 235.458518 573.414939 C 354.449162 573.329285 450.928063 449.488386 450.968152 296.709104 Z M 450.968152 296.709104 " transform="matrix(0.0287414,-0.0236809,0.0232744,0.0292435,0,17.924403)"/>
<path style="fill:none;stroke-width:40;stroke-linecap:butt;stroke-linejoin:miter;stroke:rgb(0%,62.745098%,83.529412%);stroke-opacity:1;stroke-miterlimit:4;" d="M 288.533335 194.319575 C 288.601509 98.065979 228.441894 19.96281 154.226226 19.973663 C 80.157971 19.97031 20.048802 98.059155 19.980628 194.31275 C 19.994538 290.632816 80.154153 368.735985 154.222408 368.739337 C 228.438076 368.728485 288.547245 290.63964 288.533335 194.319575 Z M 288.533335 194.319575 " transform="matrix(0.0287414,-0.0236809,0.0232744,0.0292435,4.668848,18.950931)"/>
<path style="fill:none;stroke-width:40;stroke-linecap:butt;stroke-linejoin:miter;stroke:rgb(0%,62.745098%,83.529412%);stroke-opacity:1;stroke-miterlimit:4;" d="M 142.477832 102.33479 C 142.444974 56.892103 115.073928 20.03403 81.242679 20.021248 C 47.41143 20.008467 20.013578 56.863025 19.981107 102.386386 C 20.013965 147.829073 47.385011 184.687146 81.21626 184.699927 C 115.047509 184.712709 142.445362 147.85815 142.477832 102.33479 Z M 142.477832 102.33479 " transform="matrix(0.0287414,-0.0236809,0.0232744,0.0292435,8.738049,19.955597)"/>
</g>
</svg>
