<?xml version="1.0" encoding="UTF-8"?>
<svg xmlns="http://www.w3.org/2000/svg" xmlns:xlink="http://www.w3.org/1999/xlink" width="30px" height="px" viewBox="0 0 29 23" version="1.1">
<g id="surface1">
<path style="fill:none;stroke-width:25;stroke-linecap:butt;stroke-linejoin:miter;stroke:rgb(0%,62.745098%,83.529412%);stroke-opacity:1;stroke-miterlimit:4;" d="M 6235.309009 600.719168 L 6561.901816 424.066655 C 6561.901816 424.066655 6641.930776 405.877117 6718.666363 518.010269 C 6795.40195 630.143421 6746.220916 691.880853 6746.220916 691.880853 L 6420.7259 873.241247 L 6604.386325 965.365908 L 6753.795673 893.249739 " transform="matrix(0.0355828,0,0,0.0365079,-216.901141,-14.985705)"/>
<path style="fill:none;stroke-width:25;stroke-linecap:butt;stroke-linejoin:miter;stroke:rgb(0%,62.745098%,83.529412%);stroke-opacity:1;stroke-miterlimit:4;" d="M 6603.178755 958.075837 L 6603.178755 1010.290511 L 6898.5943 865.630185 L 6898.5943 816.732427 L 6811.429698 858.247372 " transform="matrix(0.0355828,0,0,0.0365079,-216.901141,-14.617997)"/>
<path style="fill:none;stroke-width:25;stroke-linecap:butt;stroke-linejoin:miter;stroke:rgb(0%,62.745098%,83.529412%);stroke-opacity:1;stroke-miterlimit:4;" d="M 6905.290824 816.746682 L 6699.345242 714.778272 " transform="matrix(0.0355828,0,0,0.0365079,-216.901141,-14.985705)"/>
<path style="fill:none;stroke-width:25;stroke-linecap:butt;stroke-linejoin:miter;stroke:rgb(0%,62.745098%,83.529412%);stroke-opacity:1;stroke-miterlimit:4;" d="M 6618.90301 1023.387293 C 6548.863947 987.971193 6338.74676 881.936886 6338.74676 881.936886 " transform="matrix(0.0355828,0,0,0.0365079,-217.695029,-14.783633)"/>
<path style="fill:none;stroke-width:25;stroke-linecap:butt;stroke-linejoin:miter;stroke:rgb(0%,62.745098%,83.529412%);stroke-opacity:1;stroke-miterlimit:4;" d="M 265.938007 175.378677 C 265.885916 85.431599 209.21121 12.552092 139.220358 12.461005 C 69.247484 12.522157 12.501916 85.388149 12.486672 175.418379 C 12.538764 265.365457 69.298783 338.314051 139.204322 338.336051 C 209.177195 338.274899 265.922764 265.408907 265.938007 175.378677 Z M 265.938007 175.378677 " transform="matrix(0.027653,-0.0229752,0.022393,0.028372,0,10.306008)"/>
<path style="fill:none;stroke-width:25;stroke-linecap:butt;stroke-linejoin:miter;stroke:rgb(0%,62.745098%,83.529412%);stroke-opacity:1;stroke-miterlimit:4;" d="M 169.895913 114.852082 C 169.861638 58.375619 134.664958 12.526257 91.217558 12.451589 C 47.702822 12.460074 12.536015 58.329634 12.502954 114.889251 C 12.469893 171.448867 47.751888 217.367315 91.181309 217.289744 C 134.696045 217.281259 169.948167 171.480785 169.895913 114.852082 Z M 169.895913 114.852082 " transform="matrix(0.027653,-0.0229752,0.022393,0.028372,2.65576,10.894808)"/>
<path style=" stroke:none;fill-rule:nonzero;fill:rgb(0%,62.745098%,83.529412%);fill-opacity:1;" d="M 8.980469 10.980469 C 8.234375 10.03125 7.03125 9.757812 6.296875 10.367188 C 5.566406 10.976562 5.578125 12.238281 6.324219 13.1875 C 7.074219 14.136719 8.273438 14.410156 9.007812 13.800781 C 9.742188 13.191406 9.730469 11.929688 8.980469 10.980469 Z M 8.980469 10.980469 "/>
<path style="fill:none;stroke-width:25;stroke-linecap:butt;stroke-linejoin:miter;stroke:rgb(0%,62.745098%,83.529412%);stroke-opacity:1;stroke-miterlimit:4;" d="M 83.548061 60.551892 C 83.57604 34.002353 67.616652 12.542549 48.014363 12.502102 C 28.412073 12.461655 12.516638 34.00973 12.488659 60.55927 C 12.528015 87.025657 28.420067 108.568613 48.004378 108.456821 C 67.606668 108.497268 83.587417 87.018279 83.548061 60.551892 Z M 83.548061 60.551892 " transform="matrix(0.027653,-0.0229752,0.022393,0.028372,4.970422,11.471086)"/>
</g>
</svg>
